<?xml version="1.0" encoding="UTF-8"?>
<svg width="115px" height="67px" viewBox="0 0 115 67" version="1.1" xmlns="http://www.w3.org/2000/svg" xmlns:xlink="http://www.w3.org/1999/xlink">
    <!-- Generator: Sketch 51.3 (57544) - http://www.bohemiancoding.com/sketch -->
    <title>Group</title>
    <desc>Created with Sketch.</desc>
    <defs></defs>
    <g id="Page-1" stroke="none" stroke-width="1" fill="none" fill-rule="evenodd">
        <g id="Group" transform="translate(1.000000, 1.000000)" fill="#4D4D4F" stroke="#4D4D4F">
            <path d="M105.328174,58.2094542 C107.068728,53.4722455 107.870467,48.4811245 107.711238,43.3730883 C107.401757,33.4596749 103.336156,24.0752197 96.261602,16.9463079 C89.187168,9.81713492 79.8345745,5.68176081 69.9248053,5.29980051 C59.1036524,4.88192691 48.8586866,8.77616134 41.0756404,16.265064 C39.5786973,17.705424 38.2058671,19.246181 36.9654352,20.8759999 C45.0507728,21.5953402 52.5411842,25.1177841 58.2955311,30.9331203 C64.7037607,37.4082839 68.2339539,45.9949597 68.2339539,55.1061532 C68.2339539,56.080976 68.1929841,57.0637535 68.1119406,58.0279727 C68.0951244,58.2263674 68.1695432,58.3936167 68.2925221,58.5271471 C68.4398154,58.6869859 68.6626034,58.7825135 68.8876681,58.7867734 L104.658092,58.6642051 C104.960204,58.6630476 105.229462,58.4778633 105.328174,58.2094542 Z M105.328174,58.2094542 C105.328181,58.2094371 105.328187,58.20942 105.328193,58.2094029 L105.328155,58.2095056 C105.328162,58.2094885 105.328168,58.2094713 105.328174,58.2094542 Z M25.1808588,57.7924148 C23.8876944,53.5434146 23.2320791,49.1166386 23.2320791,44.6347023 C23.2320791,38.6658213 24.3743673,32.8558363 26.5938491,27.4558258 C21.8724292,28.7111011 17.5357905,31.1823657 13.9423424,34.6874532 C8.44832695,40.0467663 5.36989765,47.1608157 5.2713175,54.7234853 C5.25635291,55.8730732 5.30968172,57.0297867 5.43257321,58.2140967 C5.43257321,58.2140967 5.43257321,58.2140967 5.429804,58.1619366 C5.46952734,58.5377985 5.77435263,58.8171313 6.14145929,58.8206963 C6.14464311,58.8205949 6.14826534,58.8204806 6.15240448,58.8203501 L24.5071077,58.7055893 C24.7660595,58.703868 24.9474852,58.5899405 25.0746631,58.4167882 C25.2012467,58.2453116 25.2558782,58.0393266 25.1808588,57.7924148 Z M6.11910832,58.8215913 C6.11631451,58.8217298 6.1147274,58.8218796 6.11209609,58.8221278 C6.11501846,58.8218291 6.11674889,58.8216522 6.12002239,58.8214765 Z M25.1808588,57.7924148 C25.1808498,57.7923854 25.1808409,57.7923559 25.1808319,57.7923265 L25.1808857,57.7925031 C25.1808767,57.7924737 25.1808677,57.7924443 25.1808588,57.7924148 Z M33.3905923,26.5123412 C30.5033142,32.0652419 29.0009494,38.2402542 29.0009494,44.6347023 C29.0009494,48.4950657 29.5579801,52.3076357 30.6563974,55.9683844 C31.5718091,59.0193097 30.3801097,62.2084951 27.5144494,63.7136701 C26.5584766,64.2159332 25.4588648,64.4690312 24.3055111,64.4760001 L6.18597769,64.5896009 C6.17626781,64.5896009 6.17626781,64.5896009 6.16646034,64.5896009 C6.15665286,64.5896009 6.15665286,64.5896009 6.14694298,64.5896009 C2.81566389,64.5896009 0.0450017165,62.0920293 -0.307363892,58.769906 C-0.451108346,57.4124515 -0.51490316,56.0261104 -0.497077771,54.648406 C-0.378630347,45.5461771 3.31962821,36.9892754 9.91402462,30.55764 C15.4290875,25.1781006 22.4019315,21.8403465 29.9065797,20.9679705 C31.8962364,17.7516197 34.2991011,14.7791173 37.0752595,12.1078573 C45.9969294,3.52324143 57.7465337,-0.943549442 70.1468135,-0.465203883 C93.7098081,0.442704842 112.741478,19.6183245 113.47728,43.1927758 L113.477279,43.1927641 C113.659975,49.0418077 112.740165,54.7637918 110.743701,60.1988968 C109.816175,62.7236622 107.379717,64.4241536 104.677719,64.4334592 L68.9057759,64.5556407 C68.8956269,64.5556407 68.8956269,64.5556407 68.8850875,64.5556407 C67.0530568,64.5556407 65.2937152,63.7850834 64.0511682,62.438181 C62.8276306,61.111377 62.2122597,59.328214 62.3630014,57.5434496 C62.4304852,56.7390121 62.4646933,55.9187918 62.4646933,55.1061532 C62.4646933,47.522848 59.5284175,40.3806343 54.1949748,34.9911752 C48.8651525,29.6053344 41.7627683,26.5940658 34.1911049,26.5100385 C33.9256173,26.5069644 33.6582854,26.5077473 33.3905923,26.5123412 Z" id="Fill-1"></path>
        </g>
    </g>
</svg>